# xmcd CD database file
#
# Track frame offsets:
#	150
#	13575
#	35854
#	51580
#	91816
#	104697
#	133045
#	148626
#	158405
#
# Disc length: 2229 seconds
#
# Revision: 2
# Processed by: cddbd v1.5.1PL2 Copyright (c) Steve Scherf et al.
# Submitted via: jetAudio 5
#
DISCID=7a08b309
DTITLE=Various Artist - Pas De Flamenco
DYEAR=2005
DGENRE=
TTITLE0=Lola De Espana
TTITLE1=Caracóles -Cantes de Cadiz-
TTITLE2=Mi Embajaora
TTITLE3=Alegrias
TTITLE4=Valgame La Magdalena
TTITLE5=Solo De Guitarra
TTITLE6=Remedios La De Montilla
TTITLE7=Me Serenaste
TTITLE8=Pa Su Papa
EXTD=
EXTT0=
EXTT1=
EXTT2=
EXTT3=
EXTT4=
EXTT5=
EXTT6=
EXTT7=
EXTT8=
PLAYORDER=
